<svg xmlns="http://www.w3.org/2000/svg" viewBox="0 0 562 316"><defs><style>.cls-1{fill:#f8f8f8;}.cls-2{fill:#b1b1b1;}.cls-3{fill:#fff;}</style></defs><title>CNN Placeholder</title><g id="Layer_2" data-name="Layer 2"><g id="Layer_1-2" data-name="Layer 1"><rect class="cls-1" width="562" height="316"/><rect class="cls-2" x="227.07" y="108" width="100" height="100"/><path class="cls-3" d="M291.19,169.3a.88.88,0,0,1-.63.89c-.46.12-.94-.16-1.3-.76l-6.77-11.67c-4.2-7.24-6.95-12-7-12.06a2.83,2.83,0,0,0-3.23-1.55,2.6,2.6,0,0,0-1.91,2.55v22.11a1.2,1.2,0,0,1-1.13,1.12H258a11.93,11.93,0,0,1,0-23.86h5.83v4.31h-5.78a7.62,7.62,0,0,0-7.62,7.62h0a7.62,7.62,0,0,0,7.62,7.62h6.81a1.19,1.19,0,0,0,1.19-1.22V146.58c0-6.71,8.67-9.93,13.26-2.14l7.55,13V146.58c0-6.71,8.67-9.93,13.26-2.14l7.56,13V140H312V169.3a.88.88,0,0,1-.63.89c-.46.12-.94-.16-1.29-.76l-7.28-12.55-6.49-11.18a2.84,2.84,0,0,0-3.23-1.55,2.59,2.59,0,0,0-1.89,2.55m6,22.72c0,6.71-8.67,9.93-13.26,2.14l-7.55-13V168.8c0,4.65-2.77,7.18-7.07,7.17H258A18,18,0,1,1,258,140h5.82v4.31H258a13.66,13.66,0,0,0,0,27.32h11.22a2.93,2.93,0,0,0,2.86-2.86V146.7a.88.88,0,0,1,.63-.89c.46-.12.94.16,1.3.76l7,12.06,6.77,11.67a2.84,2.84,0,0,0,3.24,1.55,2.59,2.59,0,0,0,1.9-2.55V146.7a.88.88,0,0,1,.63-.89c.45-.12.93.16,1.28.76.06.1,3.33,5.73,6.48,11.17l7.29,12.56a3,3,0,0,0,2.56,1.64,2.48,2.48,0,0,0,.68-.09,2.6,2.6,0,0,0,1.9-2.55V140H318v29.39c0,6.71-8.66,9.93-13.25,2.14l-7.56-13"/></g></g></svg>